<svg xmlns="http://www.w3.org/2000/svg" width="528" height="450" viewBox="0 0 527.499 450"><path d="M 335.224 0 C 439.235 0 513.329 79.194 522.949 157.175 C 525.912 167.696 527.499 178.793 527.499 190.262 L 527.499 192.275 C 527.499 143.906 488.288 104.694 439.918 104.694 C 391.548 104.694 352.337 143.906 352.337 192.275 C 352.337 284.201 351.33 349.316 351.33 391.597 C 351.33 457.03 310.057 448.978 281.87 448.978 L 283.883 190.262 C 283.883 122.989 338.419 68.454 405.691 68.454 C 459.189 68.454 504.63 102.943 520.996 150.899 C 506.207 97.444 447.803 34.227 376.497 34.227 C 303.01 29.193 222.476 82.547 211.258 175.161 C 211.258 284.111 210.396 351.554 210.396 401.664 C 210.411 401.761 218.372 450.99 140.935 449.984 L 140.935 175.161 C 144.951 149.554 152.444 125.825 163.076 104.63 C 108.255 101.2 70.468 144.196 70.468 192.271 C 70.468 284.197 69.461 349.312 69.461 391.593 C 69.461 454.011 30.2 448.974 0 448.974 L 2.014 190.257 C 2.014 122.984 56.569 66.815 123.821 68.449 C 155.361 69.329 172.413 79.358 176.307 81.945 C 210.396 31.318 265.421 0 335.224 0 Z M 474.145 138.92 C 503.611 138.92 527.498 162.808 527.498 192.274 L 527.498 311.063 C 527.498 382.536 454.01 442.901 420.79 442.901 L 420.79 192.274 C 420.79 162.808 444.678 138.92 474.145 138.92 Z" fill="#FF5B10"></path></svg>